#!OML:ASF F:\twosubjects\two\wednesday\Session 1\rory1.ASF
:FULLY-SPECIFIED
:DEGREES
133
root 17.2602 18.406 1.59165 -173.409 2.6034 181.613
lowerback 1.3802 2.47434 -1.04514
upperback 0.631542 3.30134 -0.781529
thorax -0.138749 1.65703 -0.264108
lowerneck -12.3237 -2.98336 -3.5725
upperneck 9.33345 -3.60462 1.72774
head 4.91153 -1.78447 0.83271
rclavicle -2.13694e-015 1.07344e-014
rhumerus -37.0367 -15.76 -78.6837
rradius 30.2322
rwrist 4.56131
rhand -14.3158 32.2294
rfingers 7.12502
rthumb 11.8246 2.5832
lclavicle -2.13694e-015 1.07344e-014
lhumerus -37.3834 13.0839 79.9385
lradius 21.2427
lwrist -3.97358
lhand -24.9329 22.9762
lfingers 7.12502
lthumb 1.57638 52.9501
rfemur 5.50513 5.99278 24.7793
rtibia 34.3675
rfoot 8.58061 6.34417
rtoes -10.7762
lfemur -30.5944 -7.98289 -18.0167
ltibia 27.59
lfoot -1.53311 1.79344
ltoes -11.0911
134
root 17.2544 18.408 1.41607 -173.606 2.81877 181.12
lowerback 1.31783 2.45342 -1.64502
upperback 0.874682 3.27996 -0.843215
thorax 0.115503 1.64648 0.0168281
lowerneck -12.5803 -2.95741 -3.98796
upperneck 9.26459 -3.53333 2.14538
head 4.94576 -1.73401 1.03218
rclavicle 3.31473e-014 -1.23246e-014
rhumerus -36.9405 -15.6761 -78.6749
rradius 29.7484
rwrist 4.6276
rhand -13.9721 32.4236
rfingers 7.12502
rthumb 12.156 2.79681
lclavicle 3.31473e-014 -1.23246e-014
lhumerus -36.6239 13.4489 80.0492
lradius 20.9923
lwrist -4.48324
lhand -23.7896 24.6542
lfingers 7.12502
lthumb 2.68052 54.6171
rfemur 4.31017 6.32437 24.0449
rtibia 36.9202
rfoot 11.0923 6.5765
rtoes -9.00302
lfemur -29.9527 -7.77969 -18.7973
ltibia 28.0289
lfoot -1.8437 1.48586
ltoes -10.3829
135
root 17.2506 18.4108 1.24268 -173.81 2.959 180.544
lowerback 1.3026 2.33587 -2.4209
upperback 1.03697 3.12632 -0.831168
thorax 0.25081 1.56721 0.467816
lowerneck -12.9672 -2.87242 -4.23236
upperneck 9.53301 -3.3641 2.15643
head 5.0924 -1.6578 1.08274
rclavicle 8.69683e-015 -1.86858e-014
rhumerus -36.7151 -15.2931 -78.6642
rradius 29.1066
rwrist 4.91579
rhand -14.6657 32.1475
rfingers 7.12502
rthumb 11.4872 2.48225
lclavicle 8.69683e-015 -1.86858e-014
lhumerus -36.1188 13.6752 80.3379
lradius 20.968
lwrist -4.63629
lhand -21.3764 29.3763
lfingers 7.12502
lthumb 5.01096 59.297
rfemur 3.08396 6.56695 23.2462
rtibia 39.5567
rfoot 13.3594 6.89542
rtoes -6.62228
lfemur -29.2525 -7.69963 -19.6406
ltibia 28.3032
lfoot -2.2069 1.34104
ltoes -9.88495
136
root 17.2403 18.4237 1.06785 -173.935 3.22418 180.062
lowerback 1.4845 2.33049 -2.85471
upperback 0.913222 3.10854 -0.962398
thorax 0.00742804 1.56171 0.563407
lowerneck -13.0105 -2.88085 -4.17603
upperneck 9.99562 -3.37335 1.9857
head 5.24041 -1.67548 1.0166
rclavicle -4.96962e-017 8.74653e-015
rhumerus -36.9659 -15.0989 -78.6199
rradius 28.4309
rwrist 5.568
rhand -14.9194 31.888
rfingers 7.12502
rthumb 11.2425 2.20921
lclavicle -4.96962e-017 8.74653e-015
lhumerus -36.0245 13.3257 80.5095
lradius 21.1265
lwrist -4.36972
lhand -20.0406 31.6198
lfingers 7.12502
lthumb 6.30063 61.5061
rfemur 1.60554 6.62095 22.4316
rtibia 42.2176
rfoot 15.6282 7.27727
rtoes -4.28727
lfemur -28.5524 -7.57563 -20.3891
ltibia 28.4101
lfoot -2.51364 1.25936
ltoes -9.51538
137
root 17.2301 18.4401 0.89741 -174.028 3.35523 179.456
lowerback 1.71682 2.32684 -3.29397
upperback 0.74163 3.09067 -1.21954
thorax -0.306335 1.56072 0.529702
lowerneck -12.7438 -2.93382 -4.21934
upperneck 10.1798 -3.47803 2.16196
head 5.261 -1.7202 1.0721
rclavicle 1.18277e-014 1.66979e-014
rhumerus -37.3805 -14.8404 -78.7071
rradius 27.9465
rwrist 6.09241
rhand -14.8397 31.4331
rfingers 7.12502
rthumb 11.3193 1.75854
lclavicle 1.18277e-014 1.66979e-014
lhumerus -35.8044 12.6392 80.7295
lradius 21.1786
lwrist -4.10682
lhand -21.3895 29.2921
lfingers 7.12502
lthumb 4.9983 59.2132
rfemur -0.0313284 6.54246 21.4925
rtibia 44.8701
rfoot 17.4725 8.27582
rtoes -4.1335
lfemur -27.8255 -7.52633 -21.2623
ltibia 28.3554
lfoot -2.6696 1.10103
ltoes -8.32411
138
root 17.2254 18.4493 0.728195 -174.263 3.28113 178.751
lowerback 1.83153 2.1528 -4.08183
upperback 0.832013 2.85428 -1.28703
thorax -0.303548 1.44527 0.901644
lowerneck -13.0083 -2.82505 -4.2865
upperneck 10.4029 -3.29699 2.04949
head 5.36817 -1.64211 1.05888
rclavicle 3.19049e-014 -2.94201e-014
rhumerus -37.3388 -14.2427 -78.7739
rradius 27.5457
rwrist 6.43114
rhand -14.1769 31.2082
rfingers 7.12502
rthumb 11.9585 1.56979
lclavicle 3.19049e-014 -2.94201e-014
lhumerus -35.3208 12.5997 81.0134
lradius 21.1491
lwrist -3.99679
lhand -23.8011 25.3001
lfingers 7.12502
lthumb 2.66944 55.2632
rfemur -1.45102 6.42764 20.5261
rtibia 47.526
rfoot 18.7949 9.368
rtoes -3.92387
lfemur -26.8529 -7.51015 -22.2429
ltibia 28.0954
lfoot -2.79199 0.823329
ltoes -7.28165
139
root 17.2166 18.4593 0.558374 -174.476 3.30474 178.202
lowerback 1.81954 1.98871 -4.74464
upperback 0.993355 2.64042 -1.26316
thorax -0.150849 1.33566 1.30441
lowerneck -13.3839 -2.65795 -4.25353
upperneck 10.6082 -3.02055 1.7207
head 5.4806 -1.52897 0.969148
rclavicle -6.90777e-015 2.54444e-014
rhumerus -37.0184 -13.6301 -78.8506
rradius 27.0791
rwrist 6.68318
rhand -12.8008 31.1136
rfingers 7.12502
rthumb 13.2852 1.557
lclavicle -6.90777e-015 2.54444e-014
lhumerus -34.7807 12.6385 81.3327
lradius 21.2015
lwrist -3.72971
lhand -25.0795 23.3479
lfingers 7.12502
lthumb 1.43475 53.3228
rfemur -2.89305 6.30479 19.6723
rtibia 50.1151
rfoot 19.8622 9.72413
rtoes -3.89206
lfemur -25.8458 -7.4704 -23.06
ltibia 27.7533
lfoot -3.08467 0.682425
ltoes -7.59608
140
root 17.2087 18.4839 0.389411 -174.647 3.26394 177.773
lowerback 1.89894 1.82913 -5.23988
upperback 1.0749 2.42397 -1.23151
thorax -0.119552 1.22647 1.61668
lowerneck -13.5989 -2.49147 -4.36445
upperneck 10.844 -2.75017 1.5749
head 5.58207 -1.41436 0.961752
rclavicle 1.83876e-015 -1.11319e-014
rhumerus -36.7546 -13.2842 -78.8077
rradius 26.5395
rwrist 7.15364
rhand -11.6372 31.1785
rfingers 7.12502
rthumb 14.4066 1.69849
lclavicle 1.83876e-015 -1.11319e-014
lhumerus -34.237 12.3753 81.7773
lradius 21.3466
lwrist -2.98838
lhand -25.0395 23.263
lfingers 7.12502
lthumb 1.47337 53.2376
rfemur -4.50862 6.15227 18.9898
rtibia 52.5757
rfoot 20.0118 10.2642
rtoes -5.35129
lfemur -24.9216 -7.49336 -23.7244
ltibia 27.5355
lfoot -3.56175 0.591879
ltoes -7.77535
141
root 17.2034 18.4976 0.221308 -174.89 3.16503 177.487
lowerback 2.18419 1.71195 -5.59941
upperback 1.02671 2.24024 -1.16013
thorax -0.332463 1.1396 1.88431
lowerneck -13.5709 -2.36251 -4.34624
upperneck 11.1345 -2.55153 1.28812
head 5.65921 -1.34401 0.885036
rclavicle -3.8763e-015 -4.77083e-015
rhumerus -36.8503 -13.3342 -78.4591
rradius 26.0731
rwrist 8.23749
rhand -11.1808 31.859
rfingers 7.12502
rthumb 14.8463 2.41085
lclavicle -3.8763e-015 -4.77083e-015
lhumerus -33.8516 11.8392 82.2784
lradius 21.3782
lwrist -2.3981
lhand -24.4021 23.4421
lfingers 7.12502
lthumb 2.08903 53.4117
rfemur -5.89463 6.04715 18.5129
rtibia 54.8574
rfoot 19.2245 10.7932
rtoes -5.36722
lfemur -23.9833 -7.54759 -24.2011
ltibia 27.4272
lfoot -4.20317 0.431955
ltoes -5.98609
142
root 17.1936 18.478 0.0599032 -175.106 3.20144 177.158
lowerback 2.30177 1.69964 -5.84206
upperback 0.991557 2.21324 -1.22099
thorax -0.438586 1.13098 1.95305
lowerneck -13.2337 -2.31596 -4.07519
upperneck 11.161 -2.51725 0.951027
head 5.60244 -1.34515 0.740996
rclavicle -6.4605e-015 2.62396e-014
rhumerus -37.1317 -13.8178 -78.0795
rradius 25.7594
rwrist 9.64547
rhand -11.0358 32.1051
rfingers 7.12502
rthumb 14.986 2.66731
lclavicle -6.4605e-015 2.62396e-014
lhumerus -33.5649 11.0033 82.7019
lradius 21.5543
lwrist -2.29964
lhand -23.8668 24.3049
lfingers 7.12502
lthumb 2.60596 54.2688
rfemur -6.90379 5.87268 17.9135
rtibia 56.8856
rfoot 17.8942 10.7527
rtoes -3.92855
lfemur -23.18 -7.50355 -24.7445
ltibia 27.3946
lfoot -4.80094 0.2615
ltoes -3.49771
143
root 17.1848 18.4667 -0.0928471 -175.235 3.25758 176.757
lowerback 2.37047 1.66428 -6.15141
upperback 0.982337 2.16212 -1.33824
thorax -0.488441 1.11033 2.0039
lowerneck -13.1051 -2.23999 -3.92074
upperneck 11.1853 -2.44624 0.911892
head 5.58422 -1.30825 0.711109
rclavicle 4.87022e-015 -1.53064e-014
rhumerus -37.3709 -14.2074 -77.9161
rradius 25.6173
rwrist 10.5753
rhand -10.7199 31.7224
rfingers 7.12502
rthumb 15.2903 2.30758
lclavicle 4.87022e-015 -1.53064e-014
lhumerus -33.2846 10.2837 83.0189
lradius 21.935
lwrist -2.2825
lhand -23.7071 24.7261
lfingers 7.12502
lthumb 2.76023 54.688
rfemur -7.98246 5.60317 17.192
rtibia 58.8169
rfoot 16.2003 10.4474
rtoes -2.74167
lfemur -22.5365 -7.35492 -25.3722
ltibia 27.4332
lfoot -5.16467 0.0423454
ltoes -2.68647
144
root 17.1771 18.472 -0.246745 -175.282 3.27991 176.55
lowerback 2.48254 1.57355 -6.33208
upperback 0.858782 2.02195 -1.35323
thorax -0.672805 1.04754 2.08807
lowerneck -12.8554 -2.10516 -3.87529
upperneck 11.1637 -2.29002 0.937629
head 5.5316 -1.23019 0.727772
rclavicle 2.24875e-014 -2.16675e-014
rhumerus -37.7301 -14.0442 -77.912
rradius 25.6905
rwrist 10.7277
rhand -10.0796 32.0921
rfingers 7.12502
rthumb 15.907 2.72544
lclavicle 2.24875e-014 -2.16675e-014
lhumerus -33.1353 9.56768 83.3417
lradius 22.2429
lwrist -2.06219
lhand -24.1203 24.0453
lfingers 7.12502
lthumb 2.36116 54.012
rfemur -9.29606 5.41464 16.6767
rtibia 60.6986
rfoot 14.1935 9.99796
rtoes -1.59514
lfemur -21.9458 -7.27778 -25.7593
ltibia 27.4341
lfoot -5.47726 -0.158099
ltoes -3.3256
145
root 17.1668 18.4816 -0.411561 -175.388 3.16832 176.463
lowerback 2.36209 1.44184 -6.30937
upperback 0.913994 1.85807 -1.30241
thorax -0.535759 0.960186 2.13812
lowerneck -12.6375 -2.01525 -3.84308
upperneck 11.0884 -2.16718 0.789229
head 5.46666 -1.18122 0.68848
rclavicle 1.0138e-014 2.84262e-014
rhumerus -37.8966 -14.1627 -77.7004
rradius 25.6681
rwrist 10.9693
rhand -9.7025 32.8143
rfingers 7.12502
rthumb 16.2701 3.47697
lclavicle 1.0138e-014 2.84262e-014
lhumerus -32.6149 8.96973 83.7431
lradius 22.2543
lwrist -1.72391
lhand -25.1418 23.0906
lfingers 7.12502
lthumb 1.37465 53.0659
rfemur -10.6732 5.02001 16.3505
rtibia 62.4407
rfoot 12.5308 9.32397
rtoes -1.2228
lfemur -21.1509 -7.38529 -26.021
ltibia 27.2986
lfoot -5.89145 -0.291858
ltoes -3.5684
146
root 17.1552 18.4978 -0.575426 -175.513 3.03416 176.352
lowerback 2.26234 1.28494 -6.36788
upperback 1.04182 1.66091 -1.19032
thorax -0.33629 0.852811 2.29724
lowerneck -12.7898 -2.009 -3.82776
upperneck 11.2328 -2.12894 0.56827
head 5.53424 -1.18068 0.617764
rclavicle -1.63997e-015 -1.8487e-014
rhumerus -37.8435 -14.5779 -77.2802
rradius 25.438
rwrist 11.5851
rhand -9.62595 33.3165
rfingers 7.12502
rthumb 16.3438 3.98522
lclavicle -1.63997e-015 -1.8487e-014
lhumerus -31.8947 8.77447 84.1191
lradius 22.1931
lwrist -1.88654
lhand -25.1392 22.9507
lfingers 7.12502
lthumb 1.37717 52.926
rfemur -12.2292 4.40105 16.0373
rtibia 64.0332
rfoot 11.5869 8.6229
rtoes -2.0112
lfemur -20.2788 -7.4818 -26.317
ltibia 27.107
lfoot -6.34419 -0.394775
ltoes -3.56385
147
root 17.1456 18.5061 -0.728334 -175.533 3.06428 176.318
lowerback 2.34667 1.18596 -6.39871
upperback 0.962 1.51162 -1.07953
thorax -0.456989 0.780298 2.43008
lowerneck -12.7765 -1.96487 -3.76216
upperneck 11.3455 -2.06327 0.394518
head 5.56358 -1.16191 0.557623
rclavicle 1.27968e-014 -4.01545e-014
rhumerus -37.9652 -14.875 -76.9304
rradius 25.2601
rwrist 11.8227
rhand -9.20532 33.9273
rfingers 7.12502
rthumb 16.7488 4.62981
lclavicle 1.27968e-014 -4.01545e-014
lhumerus -31.5428 8.35685 84.4461
lradius 22.3676
lwrist -2.02925
lhand -24.769 23.2809
lfingers 7.12502
lthumb 1.73464 53.2536
rfemur -13.866 3.93121 15.7868
rtibia 65.4181
rfoot 10.2754 8.45269
rtoes -3.20304
lfemur -19.5911 -7.39468 -26.5103
ltibia 26.9312
lfoot -6.74118 -0.473383
ltoes -3.94799
